<svg xmlns="http://www.w3.org/2000/svg" viewBox="0 0 136 136">
  <rect width="136" height="136" rx="28" fill="#1A1A1A"/>
  <g transform="translate(68 70) scale(0.82) translate(-73 -46)">
    <path fill="#C8A96E" d="m46.5 9.2-6.2 33.8-1.3 11h-0.1l-1.3-10-6.4-34.8h-21.1v72.5h14l-0.1-35.5-0.9-21.5 9.8 57.1h11.8l10-57v-0.1h0.1l-0.9 21.3-0.1 35.8h13.8v-72.6zm23.1 0v12.3h10l0.1 60.2h14.8v-60.2h10.3v-12.3zm57.6 23.4 14-0.6v-5.8c-0.3-10.7-4.5-17.9-17.5-17.9-6.1 0-9.8 1.4-12.7 4.1-3.2 2.9-5.4 7.7-5.4 14.8 0 17.4 12.5 19.6 19 26.8 2.6 2.9 3 6.3 2.9 11 0 3.9-1 5.9-3.8 5.8-1.9 0-2.9-1-3.7-3.4-0.6-2.3-0.3-11.3-0.4-11.3l-14.3 0.7c-0.7 10.2 0.1 20.2 6.6 23.2 5.4 3.1 12.6 2.8 16 2.4 8.9-0.8 13.2-6.2 13.8-15.7 0.6-8.7-0.1-16.7-4.7-21.4-6.4-6.6-14.6-9.9-16.9-13.7-1.8-2.4-1.4-8.8-1.4-8.7 0-3.4 0.8-6.1 3.8-6.1s3.8 2.8 3.9 6v6.4z"/>
  </g>
</svg>
